<mxfile host="Electron" modified="2023-07-13T16:18:20.693Z" agent="Mozilla/5.0 (Macintosh; Intel Mac OS X 10_15_7) AppleWebKit/537.36 (KHTML, like Gecko) draw.io/21.6.1 Chrome/112.0.5615.204 Electron/24.6.1 Safari/537.36" etag="HqPZ_QJi9Zr_3pZr3E5C" version="21.6.1" type="device">
  <diagram name="Side-1" id="c_VwynwjkidQODpz4t4Q">
    <mxGraphModel dx="954" dy="727" grid="1" gridSize="10" guides="1" tooltips="1" connect="1" arrows="1" fold="1" page="1" pageScale="1" pageWidth="827" pageHeight="1169" math="0" shadow="0">
      <root>
        <mxCell id="0" />
        <mxCell id="1" parent="0" />
        <mxCell id="BoxMZLM-CGL9lSDzdwQZ-5" value="" style="edgeStyle=orthogonalEdgeStyle;rounded=0;orthogonalLoop=1;jettySize=auto;html=1;" edge="1" parent="1" source="BoxMZLM-CGL9lSDzdwQZ-39" target="BoxMZLM-CGL9lSDzdwQZ-4">
          <mxGeometry relative="1" as="geometry" />
        </mxCell>
        <mxCell id="BoxMZLM-CGL9lSDzdwQZ-1" value="" style="strokeWidth=2;html=1;shape=mxgraph.flowchart.start_1;whiteSpace=wrap;" vertex="1" parent="1">
          <mxGeometry x="280" y="20" width="100" height="40" as="geometry" />
        </mxCell>
        <mxCell id="BoxMZLM-CGL9lSDzdwQZ-7" value="Nej" style="edgeStyle=orthogonalEdgeStyle;rounded=0;orthogonalLoop=1;jettySize=auto;html=1;" edge="1" parent="1" source="BoxMZLM-CGL9lSDzdwQZ-4" target="BoxMZLM-CGL9lSDzdwQZ-6">
          <mxGeometry relative="1" as="geometry" />
        </mxCell>
        <mxCell id="BoxMZLM-CGL9lSDzdwQZ-34" value="" style="edgeStyle=orthogonalEdgeStyle;rounded=0;orthogonalLoop=1;jettySize=auto;html=1;" edge="1" parent="1" source="BoxMZLM-CGL9lSDzdwQZ-4" target="BoxMZLM-CGL9lSDzdwQZ-33">
          <mxGeometry relative="1" as="geometry" />
        </mxCell>
        <mxCell id="BoxMZLM-CGL9lSDzdwQZ-4" value="is user logged in" style="rhombus;whiteSpace=wrap;html=1;strokeWidth=2;" vertex="1" parent="1">
          <mxGeometry x="290" y="210" width="80" height="80" as="geometry" />
        </mxCell>
        <mxCell id="BoxMZLM-CGL9lSDzdwQZ-9" value="nej" style="edgeStyle=orthogonalEdgeStyle;rounded=0;orthogonalLoop=1;jettySize=auto;html=1;" edge="1" parent="1" source="BoxMZLM-CGL9lSDzdwQZ-6" target="BoxMZLM-CGL9lSDzdwQZ-8">
          <mxGeometry relative="1" as="geometry" />
        </mxCell>
        <mxCell id="BoxMZLM-CGL9lSDzdwQZ-20" style="edgeStyle=orthogonalEdgeStyle;rounded=0;orthogonalLoop=1;jettySize=auto;html=1;entryX=0;entryY=0.75;entryDx=0;entryDy=0;" edge="1" parent="1" source="BoxMZLM-CGL9lSDzdwQZ-6" target="BoxMZLM-CGL9lSDzdwQZ-21">
          <mxGeometry relative="1" as="geometry">
            <mxPoint x="490" y="250" as="targetPoint" />
          </mxGeometry>
        </mxCell>
        <mxCell id="BoxMZLM-CGL9lSDzdwQZ-6" value="Log user in" style="rhombus;whiteSpace=wrap;html=1;strokeWidth=2;" vertex="1" parent="1">
          <mxGeometry x="450" y="120" width="80" height="80" as="geometry" />
        </mxCell>
        <mxCell id="BoxMZLM-CGL9lSDzdwQZ-18" style="edgeStyle=orthogonalEdgeStyle;rounded=0;orthogonalLoop=1;jettySize=auto;html=1;entryX=0;entryY=0.5;entryDx=0;entryDy=0;" edge="1" parent="1" source="BoxMZLM-CGL9lSDzdwQZ-8" target="BoxMZLM-CGL9lSDzdwQZ-17">
          <mxGeometry relative="1" as="geometry" />
        </mxCell>
        <mxCell id="BoxMZLM-CGL9lSDzdwQZ-8" value="hent local data" style="whiteSpace=wrap;html=1;strokeWidth=2;" vertex="1" parent="1">
          <mxGeometry x="590" y="130" width="120" height="60" as="geometry" />
        </mxCell>
        <mxCell id="BoxMZLM-CGL9lSDzdwQZ-75" style="edgeStyle=orthogonalEdgeStyle;rounded=0;orthogonalLoop=1;jettySize=auto;html=1;entryX=1.01;entryY=0.667;entryDx=0;entryDy=0;entryPerimeter=0;" edge="1" parent="1" source="BoxMZLM-CGL9lSDzdwQZ-17" target="BoxMZLM-CGL9lSDzdwQZ-72">
          <mxGeometry relative="1" as="geometry">
            <Array as="points">
              <mxPoint x="780" y="1000" />
            </Array>
          </mxGeometry>
        </mxCell>
        <mxCell id="BoxMZLM-CGL9lSDzdwQZ-17" value="Local Driverlog data" style="shape=internalStorage;whiteSpace=wrap;html=1;dx=15;dy=15;rounded=1;arcSize=8;strokeWidth=2;" vertex="1" parent="1">
          <mxGeometry x="757" y="125" width="70" height="70" as="geometry" />
        </mxCell>
        <mxCell id="BoxMZLM-CGL9lSDzdwQZ-23" style="edgeStyle=orthogonalEdgeStyle;rounded=0;orthogonalLoop=1;jettySize=auto;html=1;exitX=1;exitY=0.5;exitDx=0;exitDy=0;" edge="1" parent="1" source="BoxMZLM-CGL9lSDzdwQZ-21" target="BoxMZLM-CGL9lSDzdwQZ-22">
          <mxGeometry relative="1" as="geometry" />
        </mxCell>
        <mxCell id="BoxMZLM-CGL9lSDzdwQZ-31" style="edgeStyle=orthogonalEdgeStyle;rounded=0;orthogonalLoop=1;jettySize=auto;html=1;" edge="1" parent="1" source="BoxMZLM-CGL9lSDzdwQZ-21">
          <mxGeometry relative="1" as="geometry">
            <mxPoint x="540" y="170" as="targetPoint" />
            <Array as="points">
              <mxPoint x="530" y="225" />
              <mxPoint x="541" y="225" />
            </Array>
          </mxGeometry>
        </mxCell>
        <mxCell id="BoxMZLM-CGL9lSDzdwQZ-32" value="Cancel log in" style="edgeLabel;html=1;align=center;verticalAlign=middle;resizable=0;points=[];" vertex="1" connectable="0" parent="BoxMZLM-CGL9lSDzdwQZ-31">
          <mxGeometry x="0.1701" y="-1" relative="1" as="geometry">
            <mxPoint as="offset" />
          </mxGeometry>
        </mxCell>
        <mxCell id="BoxMZLM-CGL9lSDzdwQZ-21" value="Enter userid and password" style="html=1;strokeWidth=2;shape=manualInput;whiteSpace=wrap;rounded=1;size=26;arcSize=11;rotation=-1;" vertex="1" parent="1">
          <mxGeometry x="440" y="280" width="100" height="60" as="geometry" />
        </mxCell>
        <mxCell id="BoxMZLM-CGL9lSDzdwQZ-25" style="edgeStyle=orthogonalEdgeStyle;rounded=0;orthogonalLoop=1;jettySize=auto;html=1;exitX=1;exitY=0.5;exitDx=0;exitDy=0;exitPerimeter=0;" edge="1" parent="1" source="BoxMZLM-CGL9lSDzdwQZ-22" target="BoxMZLM-CGL9lSDzdwQZ-24">
          <mxGeometry relative="1" as="geometry" />
        </mxCell>
        <mxCell id="BoxMZLM-CGL9lSDzdwQZ-22" value="Validate on host&lt;br&gt;" style="verticalLabelPosition=bottom;verticalAlign=top;html=1;strokeWidth=2;shape=mxgraph.arrows2.arrow;dy=0.6;dx=40;notch=0;" vertex="1" parent="1">
          <mxGeometry x="570" y="290" width="60" height="40" as="geometry" />
        </mxCell>
        <mxCell id="BoxMZLM-CGL9lSDzdwQZ-27" value="" style="edgeStyle=orthogonalEdgeStyle;rounded=0;orthogonalLoop=1;jettySize=auto;html=1;entryX=1;entryY=0.5;entryDx=0;entryDy=0;" edge="1" parent="1" source="BoxMZLM-CGL9lSDzdwQZ-24" target="BoxMZLM-CGL9lSDzdwQZ-26">
          <mxGeometry relative="1" as="geometry" />
        </mxCell>
        <mxCell id="BoxMZLM-CGL9lSDzdwQZ-24" value="Validate user" style="rounded=1;whiteSpace=wrap;html=1;absoluteArcSize=1;arcSize=14;strokeWidth=2;" vertex="1" parent="1">
          <mxGeometry x="657" y="260" width="100" height="100" as="geometry" />
        </mxCell>
        <mxCell id="BoxMZLM-CGL9lSDzdwQZ-28" style="edgeStyle=orthogonalEdgeStyle;rounded=0;orthogonalLoop=1;jettySize=auto;html=1;" edge="1" parent="1" source="BoxMZLM-CGL9lSDzdwQZ-26" target="BoxMZLM-CGL9lSDzdwQZ-21">
          <mxGeometry relative="1" as="geometry" />
        </mxCell>
        <mxCell id="BoxMZLM-CGL9lSDzdwQZ-29" value="Rejected" style="edgeLabel;html=1;align=center;verticalAlign=middle;resizable=0;points=[];" vertex="1" connectable="0" parent="BoxMZLM-CGL9lSDzdwQZ-28">
          <mxGeometry x="-0.6086" y="3" relative="1" as="geometry">
            <mxPoint as="offset" />
          </mxGeometry>
        </mxCell>
        <mxCell id="BoxMZLM-CGL9lSDzdwQZ-36" value="" style="edgeStyle=orthogonalEdgeStyle;rounded=0;orthogonalLoop=1;jettySize=auto;html=1;" edge="1" parent="1" source="BoxMZLM-CGL9lSDzdwQZ-26" target="BoxMZLM-CGL9lSDzdwQZ-35">
          <mxGeometry relative="1" as="geometry" />
        </mxCell>
        <mxCell id="BoxMZLM-CGL9lSDzdwQZ-26" value="User validated" style="rhombus;whiteSpace=wrap;html=1;rounded=1;arcSize=14;strokeWidth=2;" vertex="1" parent="1">
          <mxGeometry x="600" y="400" width="80" height="80" as="geometry" />
        </mxCell>
        <mxCell id="BoxMZLM-CGL9lSDzdwQZ-48" value="" style="edgeStyle=orthogonalEdgeStyle;rounded=0;orthogonalLoop=1;jettySize=auto;html=1;" edge="1" parent="1" source="BoxMZLM-CGL9lSDzdwQZ-33" target="BoxMZLM-CGL9lSDzdwQZ-47">
          <mxGeometry relative="1" as="geometry" />
        </mxCell>
        <mxCell id="BoxMZLM-CGL9lSDzdwQZ-33" value="get last timestamp&amp;nbsp;" style="shape=parallelogram;perimeter=parallelogramPerimeter;whiteSpace=wrap;html=1;fixedSize=1;strokeWidth=2;" vertex="1" parent="1">
          <mxGeometry x="270" y="380" width="120" height="60" as="geometry" />
        </mxCell>
        <mxCell id="BoxMZLM-CGL9lSDzdwQZ-38" style="edgeStyle=orthogonalEdgeStyle;rounded=0;orthogonalLoop=1;jettySize=auto;html=1;exitX=0;exitY=0.5;exitDx=0;exitDy=0;entryX=1;entryY=0.5;entryDx=0;entryDy=0;" edge="1" parent="1" source="BoxMZLM-CGL9lSDzdwQZ-35" target="BoxMZLM-CGL9lSDzdwQZ-37">
          <mxGeometry relative="1" as="geometry" />
        </mxCell>
        <mxCell id="BoxMZLM-CGL9lSDzdwQZ-35" value="Store user&amp;nbsp;" style="shape=parallelogram;perimeter=parallelogramPerimeter;whiteSpace=wrap;html=1;fixedSize=1;rounded=1;arcSize=14;strokeWidth=2;" vertex="1" parent="1">
          <mxGeometry x="580" y="570" width="120" height="60" as="geometry" />
        </mxCell>
        <mxCell id="BoxMZLM-CGL9lSDzdwQZ-53" style="edgeStyle=orthogonalEdgeStyle;rounded=0;orthogonalLoop=1;jettySize=auto;html=1;entryX=1;entryY=0.5;entryDx=0;entryDy=0;" edge="1" parent="1" target="BoxMZLM-CGL9lSDzdwQZ-33">
          <mxGeometry relative="1" as="geometry">
            <mxPoint x="510" y="560" as="sourcePoint" />
            <Array as="points">
              <mxPoint x="510" y="520" />
              <mxPoint x="450" y="520" />
              <mxPoint x="450" y="410" />
            </Array>
          </mxGeometry>
        </mxCell>
        <mxCell id="BoxMZLM-CGL9lSDzdwQZ-37" value="local user data" style="shape=internalStorage;whiteSpace=wrap;html=1;dx=15;dy=15;rounded=1;arcSize=8;strokeWidth=2;" vertex="1" parent="1">
          <mxGeometry x="480" y="565" width="70" height="70" as="geometry" />
        </mxCell>
        <mxCell id="BoxMZLM-CGL9lSDzdwQZ-41" style="edgeStyle=orthogonalEdgeStyle;rounded=0;orthogonalLoop=1;jettySize=auto;html=1;entryX=0;entryY=0.25;entryDx=0;entryDy=0;" edge="1" parent="1" source="BoxMZLM-CGL9lSDzdwQZ-40" target="BoxMZLM-CGL9lSDzdwQZ-39">
          <mxGeometry relative="1" as="geometry" />
        </mxCell>
        <mxCell id="BoxMZLM-CGL9lSDzdwQZ-40" value="Local Userdata" style="shape=internalStorage;whiteSpace=wrap;html=1;dx=15;dy=15;rounded=1;arcSize=8;strokeWidth=2;" vertex="1" parent="1">
          <mxGeometry x="120" y="80" width="70" height="70" as="geometry" />
        </mxCell>
        <mxCell id="BoxMZLM-CGL9lSDzdwQZ-42" value="" style="edgeStyle=orthogonalEdgeStyle;rounded=0;orthogonalLoop=1;jettySize=auto;html=1;" edge="1" parent="1" source="BoxMZLM-CGL9lSDzdwQZ-1" target="BoxMZLM-CGL9lSDzdwQZ-39">
          <mxGeometry relative="1" as="geometry">
            <mxPoint x="330" y="60" as="sourcePoint" />
            <mxPoint x="330" y="210" as="targetPoint" />
          </mxGeometry>
        </mxCell>
        <mxCell id="BoxMZLM-CGL9lSDzdwQZ-39" value="Get user&amp;nbsp;" style="shape=parallelogram;html=1;strokeWidth=2;perimeter=parallelogramPerimeter;whiteSpace=wrap;rounded=1;arcSize=12;size=0.23;" vertex="1" parent="1">
          <mxGeometry x="280" y="90" width="100" height="60" as="geometry" />
        </mxCell>
        <mxCell id="BoxMZLM-CGL9lSDzdwQZ-46" style="edgeStyle=orthogonalEdgeStyle;rounded=0;orthogonalLoop=1;jettySize=auto;html=1;entryX=0;entryY=0.5;entryDx=0;entryDy=0;" edge="1" parent="1" source="BoxMZLM-CGL9lSDzdwQZ-45" target="BoxMZLM-CGL9lSDzdwQZ-33">
          <mxGeometry relative="1" as="geometry" />
        </mxCell>
        <mxCell id="BoxMZLM-CGL9lSDzdwQZ-50" value="Last timestamp" style="edgeLabel;html=1;align=center;verticalAlign=middle;resizable=0;points=[];" vertex="1" connectable="0" parent="BoxMZLM-CGL9lSDzdwQZ-46">
          <mxGeometry x="-0.0526" relative="1" as="geometry">
            <mxPoint as="offset" />
          </mxGeometry>
        </mxCell>
        <mxCell id="BoxMZLM-CGL9lSDzdwQZ-45" value="Local Driverlog data&lt;br&gt;" style="shape=internalStorage;whiteSpace=wrap;html=1;dx=15;dy=15;rounded=1;arcSize=8;strokeWidth=2;" vertex="1" parent="1">
          <mxGeometry x="120" y="370" width="70" height="70" as="geometry" />
        </mxCell>
        <mxCell id="BoxMZLM-CGL9lSDzdwQZ-55" value="" style="edgeStyle=orthogonalEdgeStyle;rounded=0;orthogonalLoop=1;jettySize=auto;html=1;" edge="1" parent="1" source="BoxMZLM-CGL9lSDzdwQZ-47" target="BoxMZLM-CGL9lSDzdwQZ-54">
          <mxGeometry relative="1" as="geometry" />
        </mxCell>
        <mxCell id="BoxMZLM-CGL9lSDzdwQZ-47" value="get loast timetimestamp on host" style="shape=parallelogram;perimeter=parallelogramPerimeter;whiteSpace=wrap;html=1;fixedSize=1;strokeWidth=2;" vertex="1" parent="1">
          <mxGeometry x="270" y="520" width="120" height="60" as="geometry" />
        </mxCell>
        <mxCell id="BoxMZLM-CGL9lSDzdwQZ-51" value="Lat timestamp" style="edgeStyle=orthogonalEdgeStyle;rounded=0;orthogonalLoop=1;jettySize=auto;html=1;" edge="1" parent="1" source="BoxMZLM-CGL9lSDzdwQZ-49" target="BoxMZLM-CGL9lSDzdwQZ-47">
          <mxGeometry relative="1" as="geometry" />
        </mxCell>
        <mxCell id="BoxMZLM-CGL9lSDzdwQZ-49" value="Host driverlog" style="strokeWidth=2;html=1;shape=mxgraph.flowchart.database;whiteSpace=wrap;" vertex="1" parent="1">
          <mxGeometry x="120" y="520" width="60" height="60" as="geometry" />
        </mxCell>
        <mxCell id="BoxMZLM-CGL9lSDzdwQZ-57" value="Last Local time stamp" style="edgeStyle=orthogonalEdgeStyle;rounded=0;orthogonalLoop=1;jettySize=auto;html=1;" edge="1" parent="1" source="BoxMZLM-CGL9lSDzdwQZ-54" target="BoxMZLM-CGL9lSDzdwQZ-56">
          <mxGeometry relative="1" as="geometry" />
        </mxCell>
        <mxCell id="BoxMZLM-CGL9lSDzdwQZ-63" value="" style="edgeStyle=orthogonalEdgeStyle;rounded=0;orthogonalLoop=1;jettySize=auto;html=1;" edge="1" parent="1" source="BoxMZLM-CGL9lSDzdwQZ-54" target="BoxMZLM-CGL9lSDzdwQZ-62">
          <mxGeometry relative="1" as="geometry" />
        </mxCell>
        <mxCell id="BoxMZLM-CGL9lSDzdwQZ-54" value="is local timestamp &amp;gt;= host timestamp" style="rhombus;whiteSpace=wrap;html=1;strokeWidth=2;" vertex="1" parent="1">
          <mxGeometry x="290" y="650" width="80" height="80" as="geometry" />
        </mxCell>
        <mxCell id="BoxMZLM-CGL9lSDzdwQZ-59" style="edgeStyle=orthogonalEdgeStyle;rounded=0;orthogonalLoop=1;jettySize=auto;html=1;" edge="1" parent="1" source="BoxMZLM-CGL9lSDzdwQZ-56" target="BoxMZLM-CGL9lSDzdwQZ-58">
          <mxGeometry relative="1" as="geometry" />
        </mxCell>
        <mxCell id="BoxMZLM-CGL9lSDzdwQZ-56" value="Hent driverlog data&amp;nbsp; where timestamp &amp;gt; localtime stamp" style="shape=parallelogram;perimeter=parallelogramPerimeter;whiteSpace=wrap;html=1;fixedSize=1;strokeWidth=2;" vertex="1" parent="1">
          <mxGeometry x="110" y="660" width="120" height="60" as="geometry" />
        </mxCell>
        <mxCell id="BoxMZLM-CGL9lSDzdwQZ-61" style="edgeStyle=orthogonalEdgeStyle;rounded=0;orthogonalLoop=1;jettySize=auto;html=1;exitX=1;exitY=0.5;exitDx=0;exitDy=0;exitPerimeter=0;entryX=0.5;entryY=0;entryDx=0;entryDy=0;" edge="1" parent="1" source="BoxMZLM-CGL9lSDzdwQZ-58" target="BoxMZLM-CGL9lSDzdwQZ-60">
          <mxGeometry relative="1" as="geometry" />
        </mxCell>
        <mxCell id="BoxMZLM-CGL9lSDzdwQZ-58" value="" style="verticalLabelPosition=bottom;verticalAlign=top;html=1;strokeWidth=2;shape=mxgraph.arrows2.arrow;dy=0.87;dx=34;notch=0;rotation=90;" vertex="1" parent="1">
          <mxGeometry x="110" y="760" width="90" height="60" as="geometry" />
        </mxCell>
        <mxCell id="BoxMZLM-CGL9lSDzdwQZ-73" style="edgeStyle=orthogonalEdgeStyle;rounded=0;orthogonalLoop=1;jettySize=auto;html=1;entryX=0;entryY=0.667;entryDx=0;entryDy=0;entryPerimeter=0;exitX=0.5;exitY=1;exitDx=0;exitDy=0;" edge="1" parent="1" source="BoxMZLM-CGL9lSDzdwQZ-60" target="BoxMZLM-CGL9lSDzdwQZ-72">
          <mxGeometry relative="1" as="geometry" />
        </mxCell>
        <mxCell id="BoxMZLM-CGL9lSDzdwQZ-60" value="Local driverlog data" style="shape=internalStorage;whiteSpace=wrap;html=1;dx=15;dy=15;rounded=1;arcSize=8;strokeWidth=2;" vertex="1" parent="1">
          <mxGeometry x="120" y="880" width="70" height="70" as="geometry" />
        </mxCell>
        <mxCell id="BoxMZLM-CGL9lSDzdwQZ-67" value="" style="edgeStyle=orthogonalEdgeStyle;rounded=0;orthogonalLoop=1;jettySize=auto;html=1;" edge="1" parent="1" source="BoxMZLM-CGL9lSDzdwQZ-62" target="BoxMZLM-CGL9lSDzdwQZ-66">
          <mxGeometry relative="1" as="geometry" />
        </mxCell>
        <mxCell id="BoxMZLM-CGL9lSDzdwQZ-62" value="is host timestamp &amp;lt; local tiestamp&lt;br&gt;" style="rhombus;whiteSpace=wrap;html=1;strokeWidth=2;" vertex="1" parent="1">
          <mxGeometry x="420" y="750" width="80" height="80" as="geometry" />
        </mxCell>
        <mxCell id="BoxMZLM-CGL9lSDzdwQZ-69" style="edgeStyle=orthogonalEdgeStyle;rounded=0;orthogonalLoop=1;jettySize=auto;html=1;entryX=0;entryY=0.5;entryDx=0;entryDy=0;entryPerimeter=0;" edge="1" parent="1" source="BoxMZLM-CGL9lSDzdwQZ-66" target="BoxMZLM-CGL9lSDzdwQZ-68">
          <mxGeometry relative="1" as="geometry" />
        </mxCell>
        <mxCell id="BoxMZLM-CGL9lSDzdwQZ-66" value="get local driverlog data where local timestamp &amp;gt; host timestamp" style="shape=parallelogram;perimeter=parallelogramPerimeter;whiteSpace=wrap;html=1;fixedSize=1;strokeWidth=2;" vertex="1" parent="1">
          <mxGeometry x="240" y="760" width="120" height="50" as="geometry" />
        </mxCell>
        <mxCell id="BoxMZLM-CGL9lSDzdwQZ-71" style="edgeStyle=orthogonalEdgeStyle;rounded=0;orthogonalLoop=1;jettySize=auto;html=1;" edge="1" parent="1" source="BoxMZLM-CGL9lSDzdwQZ-68" target="BoxMZLM-CGL9lSDzdwQZ-70">
          <mxGeometry relative="1" as="geometry" />
        </mxCell>
        <mxCell id="BoxMZLM-CGL9lSDzdwQZ-68" value="" style="verticalLabelPosition=bottom;verticalAlign=top;html=1;strokeWidth=2;shape=mxgraph.arrows2.arrow;dy=1;dx=22.26;notch=5;rotation=90;" vertex="1" parent="1">
          <mxGeometry x="281.73" y="853.29" width="36.55" height="20" as="geometry" />
        </mxCell>
        <mxCell id="BoxMZLM-CGL9lSDzdwQZ-74" style="edgeStyle=orthogonalEdgeStyle;rounded=0;orthogonalLoop=1;jettySize=auto;html=1;entryX=0.58;entryY=0.017;entryDx=0;entryDy=0;entryPerimeter=0;" edge="1" parent="1" source="BoxMZLM-CGL9lSDzdwQZ-70" target="BoxMZLM-CGL9lSDzdwQZ-72">
          <mxGeometry relative="1" as="geometry" />
        </mxCell>
        <mxCell id="BoxMZLM-CGL9lSDzdwQZ-70" value="Host driverlog data" style="strokeWidth=2;html=1;shape=mxgraph.flowchart.database;whiteSpace=wrap;" vertex="1" parent="1">
          <mxGeometry x="270.01" y="900" width="60" height="60" as="geometry" />
        </mxCell>
        <mxCell id="BoxMZLM-CGL9lSDzdwQZ-72" value="Display Driverlog data" style="strokeWidth=2;html=1;shape=mxgraph.flowchart.display;whiteSpace=wrap;" vertex="1" parent="1">
          <mxGeometry x="410" y="960" width="100" height="60" as="geometry" />
        </mxCell>
      </root>
    </mxGraphModel>
  </diagram>
</mxfile>
